<?xml version="1.0" encoding="UTF-8" standalone="no"?>
<svg
   height="356.67727pt"
   version="1.1"
   viewBox="0 0 621.793244 356.67727"
   width="621.793244pt"
   id="svg391"
   sodipodi:docname="output.svg"
   inkscape:version="1.1.1 (c3084ef, 2021-09-22)"
   xmlns:inkscape="http://www.inkscape.org/namespaces/inkscape"
   xmlns:sodipodi="http://sodipodi.sourceforge.net/DTD/sodipodi-0.dtd"
   xmlns:xlink="http://www.w3.org/1999/xlink"
   xmlns="http://www.w3.org/2000/svg"
   xmlns:svg="http://www.w3.org/2000/svg"
   xmlns:rdf="http://www.w3.org/1999/02/22-rdf-syntax-ns#"
   xmlns:cc="http://creativecommons.org/ns#"
   xmlns:dc="http://purl.org/dc/elements/1.1/">
  <sodipodi:namedview
     id="namedview393"
     pagecolor="#ffffff"
     bordercolor="#666666"
     borderopacity="1.0"
     inkscape:pageshadow="2"
     inkscape:pageopacity="0.0"
     inkscape:pagecheckerboard="0"
     inkscape:document-units="pt"
     showgrid="false"
     inkscape:zoom="1.2469255"
     inkscape:cx="268.25981"
     inkscape:cy="173.62705"
     inkscape:window-width="1312"
     inkscape:window-height="815"
     inkscape:window-x="0"
     inkscape:window-y="35"
     inkscape:window-maximized="0"
     inkscape:current-layer="svg391" />
  <metadata
     id="metadata9">
    <rdf:RDF>
      <cc:Work>
        <dc:type
           rdf:resource="http://purl.org/dc/dcmitype/StillImage" />
        <dc:date>2022-07-21T14:15:12.904947</dc:date>
        <dc:format>image/svg+xml</dc:format>
        <dc:creator>
          <cc:Agent>
            <dc:title>Matplotlib v3.4.3, https://matplotlib.org/</dc:title>
          </cc:Agent>
        </dc:creator>
      </cc:Work>
    </rdf:RDF>
  </metadata>
  <defs
     id="defs13">
    <style
       type="text/css"
       id="style11">*{stroke-linecap:butt;stroke-linejoin:round;}</style>
  </defs>
  <g
     id="figure_1"
     transform="matrix(0.75,0,0,0.75,89.246606,31.019748)">
    <g
       id="patch_1">
      <path
         d="M 0,356.67727 H 621.79324 V 0 H 0 Z"
         style="fill:none"
         id="path15" />
    </g>
    <g
       id="axes_1">
      <g
         id="patch_2">
        <path
           d="M 77.724155,312.09261 H 559.61392 V 42.801272 H 77.724155 Z"
           style="fill:#ffffff"
           id="path18" />
      </g>
      <g
         id="matplotlib.axis_1">
        <g
           id="xtick_1">
          <g
             id="line2d_1">
            <defs
               id="defs22">
              <path
                 d="M 0,0 V 3.5"
                 id="m35b59a600f"
                 style="stroke:#000000;stroke-width:0.8" />
            </defs>
            <g
               id="g26">
              <use
                 style="stroke:#000000;stroke-width:0.8"
                 x="99.628235"
                 xlink:href="#m35b59a600f"
                 y="312.09262"
                 id="use24"
                 width="100%"
                 height="100%" />
            </g>
          </g>
          <g
             id="text_1">
            <!-- 0.0 -->
            <g
               transform="matrix(0.2,0,0,-0.2,83.725111,334.28949)"
               id="g39">
              <defs
                 id="defs31">
                <path
                   d="m 2034,4250 q -487,0 -733,-480 -245,-479 -245,-1442 0,-959 245,-1439 246,-480 733,-480 491,0 736,480 246,480 246,1439 0,963 -246,1442 -245,480 -736,480 z m 0,500 q 785,0 1199,-621 414,-620 414,-1801 0,-1178 -414,-1799 -414,-620 -1199,-620 -784,0 -1198,620 -414,621 -414,1799 0,1181 414,1801 414,621 1198,621 z"
                   id="DejaVuSans-30"
                   transform="scale(0.015625)" />
                <path
                   d="m 684,794 h 660 V 0 H 684 Z"
                   id="DejaVuSans-2e"
                   transform="scale(0.015625)" />
              </defs>
              <use
                 xlink:href="#DejaVuSans-30"
                 id="use33"
                 x="0"
                 y="0"
                 width="100%"
                 height="100%" />
              <use
                 x="63.623047"
                 xlink:href="#DejaVuSans-2e"
                 id="use35"
                 y="0"
                 width="100%"
                 height="100%" />
              <use
                 x="95.410156"
                 xlink:href="#DejaVuSans-30"
                 id="use37"
                 y="0"
                 width="100%"
                 height="100%" />
            </g>
          </g>
        </g>
        <g
           id="xtick_2">
          <g
             id="line2d_2">
            <g
               id="g45">
              <use
                 style="stroke:#000000;stroke-width:0.8"
                 x="187.24455"
                 xlink:href="#m35b59a600f"
                 y="312.09262"
                 id="use43"
                 width="100%"
                 height="100%" />
            </g>
          </g>
          <g
             id="text_2">
            <!-- 0.1 -->
            <g
               transform="matrix(0.2,0,0,-0.2,171.34143,334.28949)"
               id="g57">
              <defs
                 id="defs49">
                <path
                   d="M 794,531 H 1825 V 4091 L 703,3866 v 575 l 1116,225 h 631 V 531 H 3481 V 0 H 794 Z"
                   id="DejaVuSans-31"
                   transform="scale(0.015625)" />
              </defs>
              <use
                 xlink:href="#DejaVuSans-30"
                 id="use51"
                 x="0"
                 y="0"
                 width="100%"
                 height="100%" />
              <use
                 x="63.623047"
                 xlink:href="#DejaVuSans-2e"
                 id="use53"
                 y="0"
                 width="100%"
                 height="100%" />
              <use
                 x="95.410156"
                 xlink:href="#DejaVuSans-31"
                 id="use55"
                 y="0"
                 width="100%"
                 height="100%" />
            </g>
          </g>
        </g>
        <g
           id="xtick_3">
          <g
             id="line2d_3">
            <g
               id="g63">
              <use
                 style="stroke:#000000;stroke-width:0.8"
                 x="274.86087"
                 xlink:href="#m35b59a600f"
                 y="312.09262"
                 id="use61"
                 width="100%"
                 height="100%" />
            </g>
          </g>
          <g
             id="text_3">
            <!-- 0.2 -->
            <g
               transform="matrix(0.2,0,0,-0.2,258.95775,334.28949)"
               id="g75">
              <defs
                 id="defs67">
                <path
                   d="M 1228,531 H 3431 V 0 H 469 v 531 q 359,372 979,998 621,627 780,809 303,340 423,576 121,236 121,464 0,372 -261,606 -261,235 -680,235 -297,0 -627,-103 -329,-103 -704,-313 v 638 q 381,153 712,231 332,78 607,78 725,0 1156,-363 431,-362 431,-968 0,-288 -108,-546 -107,-257 -392,-607 -78,-91 -497,-524 Q 1991,1309 1228,531 Z"
                   id="DejaVuSans-32"
                   transform="scale(0.015625)" />
              </defs>
              <use
                 xlink:href="#DejaVuSans-30"
                 id="use69"
                 x="0"
                 y="0"
                 width="100%"
                 height="100%" />
              <use
                 x="63.623047"
                 xlink:href="#DejaVuSans-2e"
                 id="use71"
                 y="0"
                 width="100%"
                 height="100%" />
              <use
                 x="95.410156"
                 xlink:href="#DejaVuSans-32"
                 id="use73"
                 y="0"
                 width="100%"
                 height="100%" />
            </g>
          </g>
        </g>
        <g
           id="xtick_4">
          <g
             id="line2d_4">
            <g
               id="g81">
              <use
                 style="stroke:#000000;stroke-width:0.8"
                 x="362.4772"
                 xlink:href="#m35b59a600f"
                 y="312.09262"
                 id="use79"
                 width="100%"
                 height="100%" />
            </g>
          </g>
          <g
             id="text_4">
            <!-- 0.3 -->
            <g
               transform="matrix(0.2,0,0,-0.2,346.57407,334.28949)"
               id="g93">
              <defs
                 id="defs85">
                <path
                   d="m 2597,2516 q 453,-97 707,-404 255,-306 255,-756 0,-690 -475,-1069 -475,-378 -1350,-378 -293,0 -604,58 -311,58 -642,174 v 609 q 262,-153 574,-231 313,-78 654,-78 593,0 904,234 311,234 311,681 0,413 -289,645 -289,233 -804,233 h -544 v 519 h 569 q 465,0 712,186 247,186 247,536 0,359 -255,551 -254,193 -729,193 -260,0 -557,-57 -297,-56 -653,-174 v 562 q 360,100 674,150 314,50 592,50 719,0 1137,-327 419,-326 419,-882 0,-388 -222,-655 -222,-267 -631,-370 z"
                   id="DejaVuSans-33"
                   transform="scale(0.015625)" />
              </defs>
              <use
                 xlink:href="#DejaVuSans-30"
                 id="use87"
                 x="0"
                 y="0"
                 width="100%"
                 height="100%" />
              <use
                 x="63.623047"
                 xlink:href="#DejaVuSans-2e"
                 id="use89"
                 y="0"
                 width="100%"
                 height="100%" />
              <use
                 x="95.410156"
                 xlink:href="#DejaVuSans-33"
                 id="use91"
                 y="0"
                 width="100%"
                 height="100%" />
            </g>
          </g>
        </g>
        <g
           id="xtick_5">
          <g
             id="line2d_5">
            <g
               id="g99">
              <use
                 style="stroke:#000000;stroke-width:0.8"
                 x="450.09351"
                 xlink:href="#m35b59a600f"
                 y="312.09262"
                 id="use97"
                 width="100%"
                 height="100%" />
            </g>
          </g>
          <g
             id="text_5">
            <!-- 0.4 -->
            <g
               transform="matrix(0.2,0,0,-0.2,434.19039,334.28949)"
               id="g111">
              <defs
                 id="defs103">
                <path
                   d="M 2419,4116 825,1625 h 1594 z m -166,550 h 794 V 1625 h 666 V 1100 H 3047 V 0 H 2419 V 1100 H 313 v 609 z"
                   id="DejaVuSans-34"
                   transform="scale(0.015625)" />
              </defs>
              <use
                 xlink:href="#DejaVuSans-30"
                 id="use105"
                 x="0"
                 y="0"
                 width="100%"
                 height="100%" />
              <use
                 x="63.623047"
                 xlink:href="#DejaVuSans-2e"
                 id="use107"
                 y="0"
                 width="100%"
                 height="100%" />
              <use
                 x="95.410156"
                 xlink:href="#DejaVuSans-34"
                 id="use109"
                 y="0"
                 width="100%"
                 height="100%" />
            </g>
          </g>
        </g>
        <g
           id="xtick_6">
          <g
             id="line2d_6">
            <g
               id="g117">
              <use
                 style="stroke:#000000;stroke-width:0.8"
                 x="537.70984"
                 xlink:href="#m35b59a600f"
                 y="312.09262"
                 id="use115"
                 width="100%"
                 height="100%" />
            </g>
          </g>
          <g
             id="text_6">
            <!-- 0.5 -->
            <g
               transform="matrix(0.2,0,0,-0.2,521.80671,334.28949)"
               id="g129">
              <defs
                 id="defs121">
                <path
                   d="M 691,4666 H 3169 V 4134 H 1269 V 2991 q 137,47 274,70 138,23 276,23 781,0 1237,-428 457,-428 457,-1159 Q 3513,744 3044,326 2575,-91 1722,-91 1428,-91 1123,-41 819,9 494,109 v 635 q 281,-153 581,-228 300,-75 634,-75 541,0 856,284 316,284 316,772 0,487 -316,771 -315,285 -856,285 -253,0 -505,-56 -251,-56 -513,-175 z"
                   id="DejaVuSans-35"
                   transform="scale(0.015625)" />
              </defs>
              <use
                 xlink:href="#DejaVuSans-30"
                 id="use123"
                 x="0"
                 y="0"
                 width="100%"
                 height="100%" />
              <use
                 x="63.623047"
                 xlink:href="#DejaVuSans-2e"
                 id="use125"
                 y="0"
                 width="100%"
                 height="100%" />
              <use
                 x="95.410156"
                 xlink:href="#DejaVuSans-35"
                 id="use127"
                 y="0"
                 width="100%"
                 height="100%" />
            </g>
          </g>
        </g>
        <g
           id="text_7">
          <!-- Time (s) -->
          <g
             transform="matrix(0.28,0,0,-0.28,267.3481,362.74011)"
             id="g159">
            <defs
               id="defs141">
              <path
                 d="M 3828,4591 V 4044 H 2281 V 0 H 1650 V 4044 H 103 v 547 z"
                 id="Helvetica-54"
                 transform="scale(0.015625)" />
              <path
                 d="M 413,3331 H 984 V 0 H 413 Z m 0,1260 H 984 V 3953 H 413 Z"
                 id="Helvetica-69"
                 transform="scale(0.015625)" />
              <path
                 d="m 413,3347 h 556 v -475 q 200,247 362,359 278,191 632,191 400,0 643,-197 138,-112 250,-331 188,269 441,398 253,130 569,130 675,0 918,-488 132,-262 132,-706 V 0 h -585 v 2325 q 0,334 -167,459 -167,125 -408,125 -331,0 -570,-222 -239,-221 -239,-740 V 0 h -572 v 2184 q 0,341 -81,497 -128,235 -478,235 -319,0 -580,-247 Q 975,2422 975,1775 V 0 H 413 Z"
                 id="Helvetica-6d"
                 transform="scale(0.015625)" />
              <path
                 d="m 1806,3422 q 357,0 691,-167 334,-167 509,-433 169,-253 225,-591 50,-231 50,-737 H 828 q 16,-510 241,-818 225,-307 697,-307 440,0 703,290 150,169 212,391 h 553 Q 3213,866 3089,639 2966,413 2813,269 2556,19 2178,-69 q -203,-50 -459,-50 -625,0 -1060,455 -434,455 -434,1273 0,807 437,1310 438,503 1144,503 z m 897,-1481 q -34,365 -159,584 -231,406 -772,406 -388,0 -651,-280 -262,-279 -277,-710 z m -950,1487 z"
                 id="Helvetica-65"
                 transform="scale(0.015625)" />
              <path
                 id="Helvetica-20"
                 transform="scale(0.015625)"
                 d="" />
              <path
                 d="m 1894,4666 q -491,-953 -638,-1403 -222,-685 -222,-1582 0,-906 254,-1656 156,-463 615,-1331 h -378 q -456,712 -566,909 -109,197 -237,535 -175,462 -244,987 -34,272 -34,519 0,925 290,1647 185,459 769,1375 z"
                 id="Helvetica-28"
                 transform="scale(0.015625)" />
              <path
                 d="m 747,1050 q 25,-281 141,-431 212,-272 737,-272 313,0 550,136 238,136 238,420 0,216 -191,328 -122,69 -481,160 l -447,112 q -428,106 -631,238 -363,228 -363,631 0,475 342,768 342,294 921,294 756,0 1090,-443 210,-282 203,-607 h -531 q -16,191 -134,347 -194,222 -672,222 -319,0 -483,-122 -164,-122 -164,-322 0,-218 216,-350 125,-78 368,-137 l 372,-91 q 606,-147 813,-284 328,-216 328,-678 0,-447 -339,-772 -339,-325 -1033,-325 -747,0 -1058,339 -311,339 -333,839 z m 831,2378 z"
                 id="Helvetica-73"
                 transform="scale(0.015625)" />
              <path
                 d="m 222,-1306 q 497,968 641,1412 218,672 218,1575 0,903 -253,1653 -156,463 -615,1332 h 378 q 481,-769 582,-949 102,-179 221,-495 150,-391 214,-772 64,-381 64,-734 0,-925 -294,-1650 -184,-466 -765,-1372 z"
                 id="Helvetica-29"
                 transform="scale(0.015625)" />
            </defs>
            <use
               xlink:href="#Helvetica-54"
               id="use143"
               x="0"
               y="0"
               width="100%"
               height="100%" />
            <use
               x="61.083984"
               xlink:href="#Helvetica-69"
               id="use145"
               y="0"
               width="100%"
               height="100%" />
            <use
               x="83.300781"
               xlink:href="#Helvetica-6d"
               id="use147"
               y="0"
               width="100%"
               height="100%" />
            <use
               x="166.60156"
               xlink:href="#Helvetica-65"
               id="use149"
               y="0"
               width="100%"
               height="100%" />
            <use
               x="222.2168"
               xlink:href="#Helvetica-20"
               id="use151"
               y="0"
               width="100%"
               height="100%" />
            <use
               x="250"
               xlink:href="#Helvetica-28"
               id="use153"
               y="0"
               width="100%"
               height="100%" />
            <use
               x="283.30078"
               xlink:href="#Helvetica-73"
               id="use155"
               y="0"
               width="100%"
               height="100%" />
            <use
               x="333.30078"
               xlink:href="#Helvetica-29"
               id="use157"
               y="0"
               width="100%"
               height="100%" />
          </g>
        </g>
      </g>
      <g
         id="matplotlib.axis_2">
        <g
           id="ytick_1">
          <g
             id="line2d_7">
            <defs
               id="defs164">
              <path
                 d="M 0,0 H -3.5"
                 id="m3690526703"
                 style="stroke:#000000;stroke-width:0.8" />
            </defs>
            <g
               id="g168">
              <use
                 style="stroke:#000000;stroke-width:0.8"
                 x="77.724152"
                 xlink:href="#m3690526703"
                 y="299.85208"
                 id="use166"
                 width="100%"
                 height="100%" />
            </g>
          </g>
          <g
             id="text_8">
            <!-- 0.00 -->
            <g
               transform="matrix(0.2,0,0,-0.2,26.192905,307.45053)"
               id="g179">
              <use
                 xlink:href="#DejaVuSans-30"
                 id="use171"
                 x="0"
                 y="0"
                 width="100%"
                 height="100%" />
              <use
                 x="63.623047"
                 xlink:href="#DejaVuSans-2e"
                 id="use173"
                 y="0"
                 width="100%"
                 height="100%" />
              <use
                 x="95.410156"
                 xlink:href="#DejaVuSans-30"
                 id="use175"
                 y="0"
                 width="100%"
                 height="100%" />
              <use
                 x="159.0332"
                 xlink:href="#DejaVuSans-30"
                 id="use177"
                 y="0"
                 width="100%"
                 height="100%" />
            </g>
          </g>
        </g>
        <g
           id="ytick_2">
          <g
             id="line2d_8">
            <g
               id="g185">
              <use
                 style="stroke:#000000;stroke-width:0.8"
                 x="77.724152"
                 xlink:href="#m3690526703"
                 y="267.82193"
                 id="use183"
                 width="100%"
                 height="100%" />
            </g>
          </g>
          <g
             id="text_9">
            <!-- 0.05 -->
            <g
               transform="matrix(0.2,0,0,-0.2,26.192905,275.42037)"
               id="g196">
              <use
                 xlink:href="#DejaVuSans-30"
                 id="use188"
                 x="0"
                 y="0"
                 width="100%"
                 height="100%" />
              <use
                 x="63.623047"
                 xlink:href="#DejaVuSans-2e"
                 id="use190"
                 y="0"
                 width="100%"
                 height="100%" />
              <use
                 x="95.410156"
                 xlink:href="#DejaVuSans-30"
                 id="use192"
                 y="0"
                 width="100%"
                 height="100%" />
              <use
                 x="159.0332"
                 xlink:href="#DejaVuSans-35"
                 id="use194"
                 y="0"
                 width="100%"
                 height="100%" />
            </g>
          </g>
        </g>
        <g
           id="ytick_3">
          <g
             id="line2d_9">
            <g
               id="g202">
              <use
                 style="stroke:#000000;stroke-width:0.8"
                 x="77.724152"
                 xlink:href="#m3690526703"
                 y="235.79178"
                 id="use200"
                 width="100%"
                 height="100%" />
            </g>
          </g>
          <g
             id="text_10">
            <!-- 0.10 -->
            <g
               transform="matrix(0.2,0,0,-0.2,26.192905,243.39021)"
               id="g213">
              <use
                 xlink:href="#DejaVuSans-30"
                 id="use205"
                 x="0"
                 y="0"
                 width="100%"
                 height="100%" />
              <use
                 x="63.623047"
                 xlink:href="#DejaVuSans-2e"
                 id="use207"
                 y="0"
                 width="100%"
                 height="100%" />
              <use
                 x="95.410156"
                 xlink:href="#DejaVuSans-31"
                 id="use209"
                 y="0"
                 width="100%"
                 height="100%" />
              <use
                 x="159.0332"
                 xlink:href="#DejaVuSans-30"
                 id="use211"
                 y="0"
                 width="100%"
                 height="100%" />
            </g>
          </g>
        </g>
        <g
           id="ytick_4">
          <g
             id="line2d_10">
            <g
               id="g219">
              <use
                 style="stroke:#000000;stroke-width:0.8"
                 x="77.724152"
                 xlink:href="#m3690526703"
                 y="203.76161"
                 id="use217"
                 width="100%"
                 height="100%" />
            </g>
          </g>
          <g
             id="text_11">
            <!-- 0.15 -->
            <g
               transform="matrix(0.2,0,0,-0.2,26.192905,211.36006)"
               id="g230">
              <use
                 xlink:href="#DejaVuSans-30"
                 id="use222"
                 x="0"
                 y="0"
                 width="100%"
                 height="100%" />
              <use
                 x="63.623047"
                 xlink:href="#DejaVuSans-2e"
                 id="use224"
                 y="0"
                 width="100%"
                 height="100%" />
              <use
                 x="95.410156"
                 xlink:href="#DejaVuSans-31"
                 id="use226"
                 y="0"
                 width="100%"
                 height="100%" />
              <use
                 x="159.0332"
                 xlink:href="#DejaVuSans-35"
                 id="use228"
                 y="0"
                 width="100%"
                 height="100%" />
            </g>
          </g>
        </g>
        <g
           id="ytick_5">
          <g
             id="line2d_11">
            <g
               id="g236">
              <use
                 style="stroke:#000000;stroke-width:0.8"
                 x="77.724152"
                 xlink:href="#m3690526703"
                 y="171.73146"
                 id="use234"
                 width="100%"
                 height="100%" />
            </g>
          </g>
          <g
             id="text_12">
            <!-- 0.20 -->
            <g
               transform="matrix(0.2,0,0,-0.2,26.192905,179.3299)"
               id="g247">
              <use
                 xlink:href="#DejaVuSans-30"
                 id="use239"
                 x="0"
                 y="0"
                 width="100%"
                 height="100%" />
              <use
                 x="63.623047"
                 xlink:href="#DejaVuSans-2e"
                 id="use241"
                 y="0"
                 width="100%"
                 height="100%" />
              <use
                 x="95.410156"
                 xlink:href="#DejaVuSans-32"
                 id="use243"
                 y="0"
                 width="100%"
                 height="100%" />
              <use
                 x="159.0332"
                 xlink:href="#DejaVuSans-30"
                 id="use245"
                 y="0"
                 width="100%"
                 height="100%" />
            </g>
          </g>
        </g>
        <g
           id="ytick_6">
          <g
             id="line2d_12">
            <g
               id="g253">
              <use
                 style="stroke:#000000;stroke-width:0.8"
                 x="77.724152"
                 xlink:href="#m3690526703"
                 y="139.70129"
                 id="use251"
                 width="100%"
                 height="100%" />
            </g>
          </g>
          <g
             id="text_13">
            <!-- 0.25 -->
            <g
               transform="matrix(0.2,0,0,-0.2,26.192905,147.29974)"
               id="g264">
              <use
                 xlink:href="#DejaVuSans-30"
                 id="use256"
                 x="0"
                 y="0"
                 width="100%"
                 height="100%" />
              <use
                 x="63.623047"
                 xlink:href="#DejaVuSans-2e"
                 id="use258"
                 y="0"
                 width="100%"
                 height="100%" />
              <use
                 x="95.410156"
                 xlink:href="#DejaVuSans-32"
                 id="use260"
                 y="0"
                 width="100%"
                 height="100%" />
              <use
                 x="159.0332"
                 xlink:href="#DejaVuSans-35"
                 id="use262"
                 y="0"
                 width="100%"
                 height="100%" />
            </g>
          </g>
        </g>
        <g
           id="ytick_7">
          <g
             id="line2d_13">
            <g
               id="g270">
              <use
                 style="stroke:#000000;stroke-width:0.8"
                 x="77.724152"
                 xlink:href="#m3690526703"
                 y="107.67114"
                 id="use268"
                 width="100%"
                 height="100%" />
            </g>
          </g>
          <g
             id="text_14">
            <!-- 0.30 -->
            <g
               transform="matrix(0.2,0,0,-0.2,26.192905,115.26958)"
               id="g281">
              <use
                 xlink:href="#DejaVuSans-30"
                 id="use273"
                 x="0"
                 y="0"
                 width="100%"
                 height="100%" />
              <use
                 x="63.623047"
                 xlink:href="#DejaVuSans-2e"
                 id="use275"
                 y="0"
                 width="100%"
                 height="100%" />
              <use
                 x="95.410156"
                 xlink:href="#DejaVuSans-33"
                 id="use277"
                 y="0"
                 width="100%"
                 height="100%" />
              <use
                 x="159.0332"
                 xlink:href="#DejaVuSans-30"
                 id="use279"
                 y="0"
                 width="100%"
                 height="100%" />
            </g>
          </g>
        </g>
        <g
           id="ytick_8">
          <g
             id="line2d_14">
            <g
               id="g287">
              <use
                 style="stroke:#000000;stroke-width:0.8"
                 x="77.724152"
                 xlink:href="#m3690526703"
                 y="75.640984"
                 id="use285"
                 width="100%"
                 height="100%" />
            </g>
          </g>
          <g
             id="text_15">
            <!-- 0.35 -->
            <g
               transform="matrix(0.2,0,0,-0.2,26.192905,83.23942)"
               id="g298">
              <use
                 xlink:href="#DejaVuSans-30"
                 id="use290"
                 x="0"
                 y="0"
                 width="100%"
                 height="100%" />
              <use
                 x="63.623047"
                 xlink:href="#DejaVuSans-2e"
                 id="use292"
                 y="0"
                 width="100%"
                 height="100%" />
              <use
                 x="95.410156"
                 xlink:href="#DejaVuSans-33"
                 id="use294"
                 y="0"
                 width="100%"
                 height="100%" />
              <use
                 x="159.0332"
                 xlink:href="#DejaVuSans-35"
                 id="use296"
                 y="0"
                 width="100%"
                 height="100%" />
            </g>
          </g>
        </g>
        <g
           id="ytick_9">
          <g
             id="line2d_15">
            <g
               id="g304">
              <use
                 style="stroke:#000000;stroke-width:0.8"
                 x="77.724152"
                 xlink:href="#m3690526703"
                 y="43.610825"
                 id="use302"
                 width="100%"
                 height="100%" />
            </g>
          </g>
          <g
             id="text_16">
            <!-- 0.40 -->
            <g
               transform="matrix(0.2,0,0,-0.2,26.192905,51.209261)"
               id="g315">
              <use
                 xlink:href="#DejaVuSans-30"
                 id="use307"
                 x="0"
                 y="0"
                 width="100%"
                 height="100%" />
              <use
                 x="63.623047"
                 xlink:href="#DejaVuSans-2e"
                 id="use309"
                 y="0"
                 width="100%"
                 height="100%" />
              <use
                 x="95.410156"
                 xlink:href="#DejaVuSans-34"
                 id="use311"
                 y="0"
                 width="100%"
                 height="100%" />
              <use
                 x="159.0332"
                 xlink:href="#DejaVuSans-30"
                 id="use313"
                 y="0"
                 width="100%"
                 height="100%" />
            </g>
          </g>
        </g>
        <g
           id="text_17">
          <!-- Hand speed (m/s) -->
          <g
             transform="matrix(0,-0.28,-0.28,0,16.356655,288.70757)"
             id="g359">
            <defs
               id="defs325">
              <path
                 d="m 503,4591 h 628 V 2694 h 2388 v 1897 h 628 V 0 H 3519 V 2147 H 1131 V 0 H 503 Z"
                 id="Helvetica-48"
                 transform="scale(0.015625)" />
              <path
                 d="m 844,891 q 0,-244 178,-385 178,-140 422,-140 297,0 575,137 469,228 469,747 v 453 q -104,-65 -267,-109 -162,-44 -318,-63 l -340,-43 Q 1256,1447 1103,1359 844,1213 844,891 Z m 1362,1137 q 194,25 260,163 37,75 37,215 0,288 -205,417 -204,130 -585,130 -441,0 -625,-237 Q 984,2584 953,2325 H 428 q 16,619 402,861 386,242 895,242 591,0 959,-225 366,-225 366,-700 V 575 q 0,-87 36,-141 36,-53 152,-53 37,0 84,5 47,5 100,14 V -16 q -131,-37 -200,-46 -69,-10 -188,-10 -290,0 -421,206 -69,110 -97,310 -172,-225 -494,-391 -322,-166 -709,-166 -466,0 -762,283 -295,283 -295,708 0,466 291,722 291,256 762,316 z m -465,1400 z"
                 id="Helvetica-61"
                 transform="scale(0.015625)" />
              <path
                 d="m 413,3347 h 534 v -475 q 237,294 503,422 266,128 591,128 712,0 962,-497 138,-272 138,-778 V 0 h -572 v 2109 q 0,307 -91,494 -150,313 -544,313 -200,0 -328,-41 -231,-69 -406,-275 -141,-166 -183,-343 -42,-176 -42,-504 V 0 H 413 Z m 1321,81 z"
                 id="Helvetica-6e"
                 transform="scale(0.015625)" />
              <path
                 d="m 769,1634 q 0,-537 228,-900 228,-362 731,-362 391,0 642,336 252,336 252,964 0,634 -260,939 -259,305 -640,305 -425,0 -689,-325 -264,-325 -264,-957 z m 847,1772 q 384,0 643,-162 150,-94 341,-328 v 1690 h 541 V 0 H 2634 V 466 Q 2438,156 2169,18 1900,-119 1553,-119 994,-119 584,351 175,822 175,1603 q 0,731 373,1267 374,536 1068,536 z"
                 id="Helvetica-64"
                 transform="scale(0.015625)" />
              <path
                 d="m 1825,378 q 394,0 655,330 261,330 261,986 0,400 -116,687 -219,553 -800,553 -584,0 -800,-584 -116,-312 -116,-794 0,-387 116,-659 219,-519 800,-519 z M 369,3331 h 547 v -443 q 168,228 368,353 285,187 669,187 569,0 966,-436 397,-436 397,-1245 0,-1094 -572,-1563 -363,-297 -844,-297 -378,0 -634,166 -150,94 -335,322 V -1334 H 369 Z"
                 id="Helvetica-70"
                 transform="scale(0.015625)" />
              <path
                 d="m 1456,4591 h 475 L 475,0 H 0 Z"
                 id="Helvetica-2f"
                 transform="scale(0.015625)" />
            </defs>
            <use
               xlink:href="#Helvetica-48"
               id="use327"
               x="0"
               y="0"
               width="100%"
               height="100%" />
            <use
               x="72.216797"
               xlink:href="#Helvetica-61"
               id="use329"
               y="0"
               width="100%"
               height="100%" />
            <use
               x="127.83203"
               xlink:href="#Helvetica-6e"
               id="use331"
               y="0"
               width="100%"
               height="100%" />
            <use
               x="183.44727"
               xlink:href="#Helvetica-64"
               id="use333"
               y="0"
               width="100%"
               height="100%" />
            <use
               x="239.0625"
               xlink:href="#Helvetica-20"
               id="use335"
               y="0"
               width="100%"
               height="100%" />
            <use
               x="266.8457"
               xlink:href="#Helvetica-73"
               id="use337"
               y="0"
               width="100%"
               height="100%" />
            <use
               x="316.8457"
               xlink:href="#Helvetica-70"
               id="use339"
               y="0"
               width="100%"
               height="100%" />
            <use
               x="372.46094"
               xlink:href="#Helvetica-65"
               id="use341"
               y="0"
               width="100%"
               height="100%" />
            <use
               x="428.07617"
               xlink:href="#Helvetica-65"
               id="use343"
               y="0"
               width="100%"
               height="100%" />
            <use
               x="483.69141"
               xlink:href="#Helvetica-64"
               id="use345"
               y="0"
               width="100%"
               height="100%" />
            <use
               x="539.30664"
               xlink:href="#Helvetica-20"
               id="use347"
               y="0"
               width="100%"
               height="100%" />
            <use
               x="567.08984"
               xlink:href="#Helvetica-28"
               id="use349"
               y="0"
               width="100%"
               height="100%" />
            <use
               x="600.39062"
               xlink:href="#Helvetica-6d"
               id="use351"
               y="0"
               width="100%"
               height="100%" />
            <use
               x="683.69141"
               xlink:href="#Helvetica-2f"
               id="use353"
               y="0"
               width="100%"
               height="100%" />
            <use
               x="711.47461"
               xlink:href="#Helvetica-73"
               id="use355"
               y="0"
               width="100%"
               height="100%" />
            <use
               x="761.47461"
               xlink:href="#Helvetica-29"
               id="use357"
               y="0"
               width="100%"
               height="100%" />
          </g>
        </g>
      </g>
      <g
         id="line2d_16">
        <path
           clip-path="url(#p7cf6cf2bff)"
           d="m 99.628236,299.8521 2.190404,-1.11963 2.19041,-4.4057 2.19041,-7.4115 2.19041,-9.96887 2.19041,-11.95965 4.38081,-27.29436 4.38082,-27.27828 2.19041,-12.0762 2.1904,-10.40703 2.19041,-8.45141 2.19041,-6.38794 2.19041,-4.42444 2.19041,-2.74815 2.1904,-1.47842 2.19041,-0.66059 8.76163,-1.13465 8.76164,-1.52278 4.38081,-0.58348 4.38082,-0.385 4.38081,-0.19225 8.76164,-0.0625 122.66284,0.13306 24.09449,0.10143 2.19041,0.0893 8.76163,-0.10436 91.99714,0.34235 45.99857,0.28916 4.38082,0.21074 4.38081,0.44631 4.38082,0.69257 4.38081,0.90834 4.38082,1.03295 6.57122,1.30355 2.19041,0.91624 2.19041,1.72233 2.19041,2.89491 2.1904,4.35124 2.19041,6.00946 2.19041,7.78319 2.19041,9.54412 2.19041,11.12619 2.1904,12.38667 6.57123,39.82169 2.19041,12.06392 2.1904,10.35729 2.19041,8.06628 2.19041,5.28962 2.19041,2.1743 v 0"
           style="fill:none;stroke:#e0f3db;stroke-width:1.5;stroke-linecap:square"
           id="path363" />
      </g>
      <g
         id="line2d_17">
        <path
           clip-path="url(#p7cf6cf2bff)"
           d="m 99.628236,299.8521 2.190404,-0.0476 2.19041,-0.19027 2.19041,-0.33298 2.19041,-0.47567 2.19041,-0.61838 2.1904,-0.76109 2.19041,-0.90379 2.19041,-1.04649 2.19041,-1.1892 2.19041,-1.33191 2.1904,-1.47462 2.19041,-1.61733 2.19041,-1.76005 4.38082,-3.94826 4.38081,-4.51918 4.38082,-5.09015 4.38081,-5.66118 4.38082,-6.23229 4.38082,-6.8035 4.38081,-7.3748 4.38082,-7.94624 4.38081,-8.51782 10.95204,-22.13856 6.57123,-12.48231 6.57122,-11.88566 6.57123,-11.29925 6.57122,-10.71255 6.57122,-10.12553 6.57123,-9.53812 4.38081,-6.03218 4.38082,-5.77074 4.38082,-5.50913 4.38081,-5.24732 4.38082,-4.98533 4.38081,-4.72312 4.38082,-4.46068 4.38082,-4.19802 4.38081,-3.935114 4.38082,-3.671975 4.38081,-3.408588 4.38082,-3.144953 4.38082,-2.88107 4.38081,-2.616941 4.38082,-2.352568 4.38082,-2.087958 4.38081,-1.823113 4.38082,-1.558044 4.38081,-1.292757 4.38082,-1.027264 4.38081,-0.761577 4.38082,-0.495705 4.38082,-0.229666 4.38081,0.03653 4.38082,0.302864 4.38081,0.569323 4.38082,0.835888 4.38082,1.102545 4.38081,1.369275 4.38082,1.636061 4.38082,1.902885 4.38081,2.16973 4.38082,2.436578 4.38081,2.703415 4.38082,2.97022 4.38082,3.23698 4.38081,3.503679 4.38082,3.7703 4.38081,4.03684 4.38082,4.30326 4.38082,4.56957 4.38081,4.83576 4.38082,5.1018 4.38081,5.36769 4.38082,5.63343 4.38082,5.89897 4.38081,6.16435 4.38082,6.42952 6.57122,10.14099 6.57123,10.73627 6.57122,11.33053 6.57122,11.94311 6.57123,12.62347 6.57122,13.31415 6.57123,13.58969 4.38081,8.43572 4.38082,7.83591 4.38081,7.23631 4.38082,6.63692 4.38082,6.0377 4.38081,5.43862 4.38082,4.83966 4.38081,4.2408 2.19041,1.89585 2.19041,1.74615 2.19041,1.59647 2.19041,1.4468 2.1904,1.29711 2.19041,1.14745 2.19041,0.99777 2.19041,0.84811 2.19041,0.69844 2.1904,0.54877 2.19041,0.39911 2.19041,0.24944 2.19041,0.0998 v 0"
           style="fill:none;stroke:#4ddfae;stroke-width:1.5;stroke-linecap:square"
           id="path366" />
      </g>
      <g
         id="line2d_18">
        <path
           clip-path="url(#p7cf6cf2bff)"
           d="m 99.628236,299.8521 2.190404,-0.0376 2.19041,-0.15023 2.19041,-0.26289 4.38082,-0.86379 4.38081,-1.31446 4.38082,-1.76515 4.38081,-2.21585 4.38082,-2.66656 4.38082,-3.1173 4.38081,-3.56809 4.38082,-4.01892 4.38081,-4.46982 4.38082,-4.92079 4.38082,-5.37188 4.38081,-5.82306 4.38082,-6.27438 4.38081,-6.72586 4.38082,-7.17751 4.38082,-7.62936 4.38081,-8.08141 4.38082,-8.53372 4.38081,-8.98693 4.38082,-9.44857 6.57122,-14.26635 6.57123,-13.5323 4.38081,-8.60068 4.38082,-8.26385 4.38082,-7.92691 4.38081,-7.5898 4.38082,-7.25251 4.38081,-6.91503 4.38082,-6.57733 4.38082,-6.23939 4.38081,-5.90121 4.38082,-5.562785 4.38082,-5.224078 4.38081,-4.885104 4.38082,-4.545852 4.38081,-4.206319 4.38082,-3.866506 4.38081,-3.526414 4.38082,-3.18605 4.38082,-2.845418 4.38081,-2.504528 4.38082,-2.16339 4.38081,-1.822018 4.38082,-1.480427 4.38082,-1.13863 4.38081,-0.796647 4.38082,-0.454497 4.38081,-0.112199 4.38082,0.230224 4.38082,0.572754 4.38081,0.915365 4.38082,1.258036 4.38082,1.600745 4.38081,1.943469 4.38082,2.286186 4.38081,2.628875 4.38082,2.971515 4.38082,3.314086 4.38081,3.656572 4.38082,3.998955 4.38081,4.341222 4.38082,4.683357 4.38082,5.025354 4.38081,5.367202 4.38082,5.708895 4.38081,6.05043 4.38082,6.39181 4.38082,6.73304 4.38081,7.07411 4.38082,7.41505 4.38081,7.75586 4.38082,8.09654 4.38082,8.43714 4.38081,8.77765 4.38082,9.1181 6.57122,14.30872 4.38082,9.62827 4.38081,9.18212 4.38082,8.71247 4.38082,8.24295 4.38081,7.77356 4.38082,7.3043 4.38082,6.83515 4.38081,6.36609 4.38082,5.89714 4.38081,5.42827 4.38082,4.95946 4.38081,4.49072 4.38082,4.02202 4.38082,3.55338 4.38081,3.08475 4.38082,2.61616 4.38081,2.14757 4.38082,1.67901 2.19041,0.66379 2.19041,0.54665 2.1904,0.42952 2.19041,0.31237 2.19041,0.19523 2.19041,0.0781 v 0"
           style="fill:none;stroke:#084081;stroke-width:1.5;stroke-linecap:square"
           id="path369" />
      </g>
      <g
         id="patch_3">
        <path
           d="M 77.724155,312.09261 V 42.801272"
           style="fill:none;stroke:#000000;stroke-width:0.8;stroke-linecap:square;stroke-linejoin:miter"
           id="path372" />
      </g>
      <g
         id="patch_4">
        <path
           d="M 559.61392,312.09261 V 42.801272"
           style="fill:none;stroke:#000000;stroke-width:0.8;stroke-linecap:square;stroke-linejoin:miter"
           id="path375" />
      </g>
      <g
         id="patch_5">
        <path
           d="M 77.724155,312.09261 H 559.61392"
           style="fill:none;stroke:#000000;stroke-width:0.8;stroke-linecap:square;stroke-linejoin:miter"
           id="path378" />
      </g>
      <g
         id="patch_6">
        <path
           d="M 77.724155,42.801272 H 559.61392"
           style="fill:none;stroke:#000000;stroke-width:0.8;stroke-linecap:square;stroke-linejoin:miter"
           id="path381" />
      </g>
    </g>
  </g>
  <defs
     id="defs389">
    <clipPath
       id="p7cf6cf2bff">
      <rect
         height="269.291339"
         width="481.889764"
         x="77.724155"
         y="42.801272"
         id="rect386" />
    </clipPath>
  </defs>
</svg>
