<?xml version="1.0" encoding="utf-8" standalone="no"?>
<!DOCTYPE svg PUBLIC "-//W3C//DTD SVG 1.1//EN"
  "http://www.w3.org/Graphics/SVG/1.1/DTD/svg11.dtd">
<svg height="288pt" version="1.1" viewBox="0 0 432 288" width="432pt" xmlns="http://www.w3.org/2000/svg" xmlns:xlink="http://www.w3.org/1999/xlink">
 <metadata>
  <rdf:RDF xmlns:cc="http://creativecommons.org/ns#" xmlns:dc="http://purl.org/dc/elements/1.1/" xmlns:rdf="http://www.w3.org/1999/02/22-rdf-syntax-ns#">
   <cc:Work>
    <dc:type rdf:resource="http://purl.org/dc/dcmitype/StillImage"/>
    <dc:date>2022-07-14T16:03:13.760687</dc:date>
    <dc:format>image/svg+xml</dc:format>
    <dc:creator>
     <cc:Agent>
      <dc:title>Matplotlib v3.4.3, https://matplotlib.org/</dc:title>
     </cc:Agent>
    </dc:creator>
   </cc:Work>
  </rdf:RDF>
 </metadata>
 <defs>
  <style type="text/css">*{stroke-linecap:butt;stroke-linejoin:round;}</style>
 </defs>
 <g id="figure_1">
  <g id="patch_1">
   <path d="M 0 288 
L 432 288 
L 432 0 
L 0 0 
z
" style="fill:none;"/>
  </g>
  <g id="axes_1">
   <g id="patch_2">
    <path d="M 54 252 
L 321.84 252 
L 321.84 34.56 
L 54 34.56 
z
" style="fill:#ffffff;"/>
   </g>
   <g id="PathCollection_1">
    <path clip-path="url(#p2aa590cc75)" d="M 56.705455 251.283643 
L 64.821818 249.475622 
L 78.349091 247.245628 
L 91.876364 245.044359 
L 105.403636 243.003079 
L 159.512727 236.596232 
L 186.567273 234.298841 
L 213.621818 231.965648 
L 240.676364 229.946617 
L 267.730909 228.945425 
L 294.785455 227.192054 
L 321.84 225.524651 
L 321.84 218.807908 
L 321.84 214.25475 
L 321.84 210.033838 
L 321.84 188.74839 
L 321.84 174.922889 
L 321.84 166.250633 
L 321.84 158.119882 
L 294.785455 167.150918 
L 267.730909 172.578628 
L 240.676364 179.614671 
L 213.621818 187.763632 
L 186.567273 196.058486 
L 159.512727 205.369101 
L 105.403636 224.636695 
L 91.876364 230.653758 
L 78.349091 237.06085 
L 64.821818 244.014238 
L 56.705455 248.704007 
L 54 250.507743 
L 54 250.670626 
L 54 250.860363 
L 54 251.119567 
L 54 251.576552 
L 54 251.676882 
L 54 251.806579 
L 54 252 
z
" style="fill:#470d60;"/>
   </g>
   <g id="PathCollection_2">
    <path clip-path="url(#p2aa590cc75)" d="M 56.705455 248.704007 
L 64.821818 244.014238 
L 78.349091 237.06085 
L 91.876364 230.653758 
L 105.403636 224.636695 
L 159.512727 205.369101 
L 186.567273 196.058486 
L 213.621818 187.763632 
L 240.676364 179.614671 
L 267.730909 172.578628 
L 294.785455 167.150918 
L 321.84 158.119882 
L 321.84 131.017378 
L 294.785455 142.00981 
L 267.730909 151.938942 
L 240.676364 160.931676 
L 213.621818 171.255301 
L 186.567273 182.308789 
L 159.512727 193.934859 
L 105.403636 218.062532 
L 91.876364 225.475685 
L 78.349091 233.466316 
L 64.821818 242.022086 
L 56.705455 247.765285 
L 54 249.9648 
L 54 250.507743 
z
" style="fill:#482475;"/>
   </g>
   <g id="PathCollection_3">
    <path clip-path="url(#p2aa590cc75)" d="M 56.705455 247.765285 
L 64.821818 242.022086 
L 78.349091 233.466316 
L 91.876364 225.475685 
L 105.403636 218.062532 
L 159.512727 193.934859 
L 186.567273 182.308789 
L 213.621818 171.255301 
L 240.676364 160.931676 
L 267.730909 151.938942 
L 294.785455 142.00981 
L 321.84 131.017378 
L 321.84 120.140947 
L 294.785455 132.199984 
L 267.730909 143.19862 
L 240.676364 153.260489 
L 213.621818 164.539708 
L 186.567273 175.70647 
L 159.512727 188.388591 
L 105.403636 215.284071 
L 91.876364 223.347084 
L 78.349091 231.975635 
L 64.821818 241.197778 
L 56.705455 247.376408 
L 54 249.739887 
L 54 249.9648 
z
" style="fill:#443983;"/>
   </g>
   <g id="PathCollection_4">
    <path clip-path="url(#p2aa590cc75)" d="M 56.705455 247.376408 
L 64.821818 241.197778 
L 78.349091 231.975635 
L 91.876364 223.347084 
L 105.403636 215.284071 
L 159.512727 188.388591 
L 186.567273 175.70647 
L 213.621818 164.539708 
L 240.676364 153.260489 
L 267.730909 143.19862 
L 294.785455 132.199984 
L 321.84 120.140947 
L 321.84 109.264516 
L 294.785455 122.390158 
L 267.730909 134.458298 
L 240.676364 145.589303 
L 213.621818 157.824114 
L 186.567273 169.104151 
L 159.512727 182.842323 
L 105.403636 212.505611 
L 91.876364 221.218482 
L 78.349091 230.484955 
L 64.821818 240.37347 
L 56.705455 246.98753 
L 54 249.514975 
L 54 249.739887 
z
" style="fill:#3d4d8a;"/>
   </g>
   <g id="PathCollection_5">
    <path clip-path="url(#p2aa590cc75)" d="M 56.705455 246.98753 
L 64.821818 240.37347 
L 78.349091 230.484955 
L 91.876364 221.218482 
L 105.403636 212.505611 
L 159.512727 182.842323 
L 186.567273 169.104151 
L 213.621818 157.824114 
L 240.676364 145.589303 
L 267.730909 134.458298 
L 294.785455 122.390158 
L 321.84 109.264516 
L 321.84 98.388084 
L 294.785455 112.580332 
L 267.730909 125.717976 
L 240.676364 137.918116 
L 213.621818 151.108521 
L 186.567273 162.501833 
L 159.512727 177.296056 
L 105.403636 209.727151 
L 91.876364 219.089881 
L 78.349091 228.994274 
L 64.821818 239.549161 
L 56.705455 246.598653 
L 54 249.290063 
L 54 249.514975 
z
" style="fill:#355f8d;"/>
   </g>
   <g id="PathCollection_6">
    <path clip-path="url(#p2aa590cc75)" d="M 56.705455 246.598653 
L 64.821818 239.549161 
L 78.349091 228.994274 
L 91.876364 219.089881 
L 105.403636 209.727151 
L 159.512727 177.296056 
L 186.567273 162.501833 
L 213.621818 151.108521 
L 240.676364 137.918116 
L 267.730909 125.717976 
L 294.785455 112.580332 
L 321.84 98.388084 
L 321.84 87.511653 
L 294.785455 102.770506 
L 267.730909 116.977654 
L 240.676364 130.246929 
L 213.621818 144.392928 
L 186.567273 155.899514 
L 159.512727 171.749788 
L 105.403636 206.94869 
L 91.876364 216.96128 
L 78.349091 227.503594 
L 64.821818 238.724853 
L 56.705455 246.209775 
L 54 249.06515 
L 54 249.290063 
z
" style="fill:#2d708e;"/>
   </g>
   <g id="PathCollection_7">
    <path clip-path="url(#p2aa590cc75)" d="M 56.705455 246.209775 
L 64.821818 238.724853 
L 78.349091 227.503594 
L 91.876364 216.96128 
L 105.403636 206.94869 
L 159.512727 171.749788 
L 186.567273 155.899514 
L 213.621818 144.392928 
L 240.676364 130.246929 
L 267.730909 116.977654 
L 294.785455 102.770506 
L 321.84 87.511653 
L 321.84 76.635221 
L 294.785455 92.96068 
L 267.730909 108.237332 
L 240.676364 122.575743 
L 213.621818 137.677335 
L 186.567273 149.297195 
L 159.512727 166.20352 
L 105.403636 204.17023 
L 91.876364 214.832678 
L 78.349091 226.012913 
L 64.821818 237.900544 
L 56.705455 245.820898 
L 54 248.840238 
L 54 249.06515 
z
" style="fill:#27808e;"/>
   </g>
   <g id="PathCollection_8">
    <path clip-path="url(#p2aa590cc75)" d="M 56.705455 245.820898 
L 64.821818 237.900544 
L 78.349091 226.012913 
L 91.876364 214.832678 
L 105.403636 204.17023 
L 159.512727 166.20352 
L 186.567273 149.297195 
L 213.621818 137.677335 
L 240.676364 122.575743 
L 267.730909 108.237332 
L 294.785455 92.96068 
L 321.84 76.635221 
L 321.84 70.418345 
L 294.785455 87.290114 
L 267.730909 103.24354 
L 240.676364 118.120269 
L 213.621818 132.033264 
L 186.567273 145.793409 
L 159.512727 163.173244 
L 105.403636 202.580609 
L 91.876364 213.600999 
L 78.349091 225.150743 
L 64.821818 237.423954 
L 56.705455 245.596088 
L 54 248.710218 
L 54 248.840238 
z
" style="fill:#21918c;"/>
   </g>
   <g id="PathCollection_9">
    <path clip-path="url(#p2aa590cc75)" d="M 56.705455 245.596088 
L 64.821818 237.423954 
L 78.349091 225.150743 
L 91.876364 213.600999 
L 105.403636 202.580609 
L 159.512727 163.173244 
L 186.567273 145.793409 
L 213.621818 132.033264 
L 240.676364 118.120269 
L 267.730909 103.24354 
L 294.785455 87.290114 
L 321.84 70.418345 
L 321.84 64.201469 
L 294.785455 81.619549 
L 267.730909 98.249747 
L 240.676364 113.664795 
L 213.621818 126.389193 
L 186.567273 142.289622 
L 159.512727 160.142968 
L 105.403636 200.990987 
L 91.876364 212.36932 
L 78.349091 224.288573 
L 64.821818 236.947364 
L 56.705455 245.371277 
L 54 248.580198 
L 54 248.710218 
z
" style="fill:#1fa188;"/>
   </g>
   <g id="PathCollection_10">
    <path clip-path="url(#p2aa590cc75)" d="M 56.705455 245.371277 
L 64.821818 236.947364 
L 78.349091 224.288573 
L 91.876364 212.36932 
L 105.403636 200.990987 
L 159.512727 160.142968 
L 186.567273 142.289622 
L 213.621818 126.389193 
L 240.676364 113.664795 
L 267.730909 98.249747 
L 294.785455 81.619549 
L 321.84 64.201469 
L 321.84 57.984593 
L 294.785455 75.948983 
L 267.730909 93.255954 
L 240.676364 109.209322 
L 213.621818 120.745122 
L 186.567273 138.785836 
L 159.512727 157.112691 
L 105.403636 199.401366 
L 91.876364 211.13764 
L 78.349091 223.426403 
L 64.821818 236.470774 
L 56.705455 245.146467 
L 54 248.450179 
L 54 248.580198 
z
" style="fill:#2ab07f;"/>
   </g>
   <g id="PathCollection_11">
    <path clip-path="url(#p2aa590cc75)" d="M 56.705455 245.146467 
L 64.821818 236.470774 
L 78.349091 223.426403 
L 91.876364 211.13764 
L 105.403636 199.401366 
L 159.512727 157.112691 
L 186.567273 138.785836 
L 213.621818 120.745122 
L 240.676364 109.209322 
L 267.730909 93.255954 
L 294.785455 75.948983 
L 321.84 57.984593 
L 321.84 53.299674 
L 294.785455 71.741743 
L 267.730909 89.498141 
L 240.676364 104.408209 
L 213.621818 117.664856 
L 186.567273 135.9065 
L 159.512727 154.922913 
L 105.403636 198.208009 
L 91.876364 210.213169 
L 78.349091 222.779383 
L 64.821818 236.113159 
L 56.705455 244.977785 
L 54 248.352622 
L 54 248.450179 
z
" style="fill:#44bf70;"/>
   </g>
   <g id="PathCollection_12">
    <path clip-path="url(#p2aa590cc75)" d="M 56.705455 244.977785 
L 64.821818 236.113159 
L 78.349091 222.779383 
L 91.876364 210.213169 
L 105.403636 198.208009 
L 159.512727 154.922913 
L 186.567273 135.9065 
L 213.621818 117.664856 
L 240.676364 104.408209 
L 267.730909 89.498141 
L 294.785455 71.741743 
L 321.84 53.299674 
L 321.84 48.614756 
L 294.785455 67.534503 
L 267.730909 85.740328 
L 240.676364 99.607097 
L 213.621818 114.584591 
L 186.567273 133.027164 
L 159.512727 152.733135 
L 105.403636 197.014651 
L 91.876364 209.288697 
L 78.349091 222.132362 
L 64.821818 235.755545 
L 56.705455 244.809104 
L 54 248.255065 
L 54 248.352622 
z
" style="fill:#67cc5c;"/>
   </g>
   <g id="PathCollection_13">
    <path clip-path="url(#p2aa590cc75)" d="M 56.705455 244.809104 
L 64.821818 235.755545 
L 78.349091 222.132362 
L 91.876364 209.288697 
L 105.403636 197.014651 
L 159.512727 152.733135 
L 186.567273 133.027164 
L 213.621818 114.584591 
L 240.676364 99.607097 
L 267.730909 85.740328 
L 294.785455 67.534503 
L 321.84 48.614756 
L 321.84 43.929837 
L 294.785455 63.327263 
L 267.730909 81.982514 
L 240.676364 94.805985 
L 213.621818 111.504325 
L 186.567273 130.147827 
L 159.512727 150.543356 
L 105.403636 195.821294 
L 91.876364 208.364226 
L 78.349091 221.485342 
L 64.821818 235.39793 
L 56.705455 244.640422 
L 54 248.157508 
L 54 248.255065 
z
" style="fill:#90d743;"/>
   </g>
   <g id="PathCollection_14">
    <path clip-path="url(#p2aa590cc75)" d="M 56.705455 244.640422 
L 64.821818 235.39793 
L 78.349091 221.485342 
L 91.876364 208.364226 
L 105.403636 195.821294 
L 159.512727 150.543356 
L 186.567273 130.147827 
L 213.621818 111.504325 
L 240.676364 94.805985 
L 267.730909 81.982514 
L 294.785455 63.327263 
L 321.84 43.929837 
L 321.84 39.244919 
L 294.785455 59.120023 
L 267.730909 78.224701 
L 240.676364 90.004873 
L 213.621818 108.42406 
L 186.567273 127.268491 
L 159.512727 148.353578 
L 105.403636 194.627937 
L 91.876364 207.439754 
L 78.349091 220.838322 
L 64.821818 235.040316 
L 56.705455 244.47174 
L 54 248.059951 
L 54 248.157508 
z
" style="fill:#bddf26;"/>
   </g>
   <g id="PathCollection_15">
    <path clip-path="url(#p2aa590cc75)" d="M 56.705455 244.47174 
L 64.821818 235.040316 
L 78.349091 220.838322 
L 91.876364 207.439754 
L 105.403636 194.627937 
L 159.512727 148.353578 
L 186.567273 127.268491 
L 213.621818 108.42406 
L 240.676364 90.004873 
L 267.730909 78.224701 
L 294.785455 59.120023 
L 321.84 39.244919 
L 321.84 34.56 
L 294.785455 54.912783 
L 267.730909 74.466888 
L 240.676364 85.20376 
L 213.621818 105.343794 
L 186.567273 124.389155 
L 159.512727 146.1638 
L 105.403636 193.434579 
L 91.876364 206.515282 
L 78.349091 220.191301 
L 64.821818 234.682701 
L 56.705455 244.303059 
L 54 247.962394 
L 54 248.059951 
z
" style="fill:#eae51a;"/>
   </g>
   <g id="matplotlib.axis_1">
    <g id="xtick_1">
     <g id="line2d_1">
      <defs>
       <path d="M 0 0 
L 0 3.5 
" id="md5b9a0d25f" style="stroke:#000000;stroke-width:0.8;"/>
      </defs>
      <g>
       <use style="stroke:#000000;stroke-width:0.8;" x="105.403636" xlink:href="#md5b9a0d25f" y="252"/>
      </g>
     </g>
     <g id="text_1">
      <!-- 0.1 -->
      <g transform="translate(97.452074 266.598437)scale(0.1 -0.1)">
       <defs>
        <path d="M 2034 4250 
Q 1547 4250 1301 3770 
Q 1056 3291 1056 2328 
Q 1056 1369 1301 889 
Q 1547 409 2034 409 
Q 2525 409 2770 889 
Q 3016 1369 3016 2328 
Q 3016 3291 2770 3770 
Q 2525 4250 2034 4250 
z
M 2034 4750 
Q 2819 4750 3233 4129 
Q 3647 3509 3647 2328 
Q 3647 1150 3233 529 
Q 2819 -91 2034 -91 
Q 1250 -91 836 529 
Q 422 1150 422 2328 
Q 422 3509 836 4129 
Q 1250 4750 2034 4750 
z
" id="DejaVuSans-30" transform="scale(0.015625)"/>
        <path d="M 684 794 
L 1344 794 
L 1344 0 
L 684 0 
L 684 794 
z
" id="DejaVuSans-2e" transform="scale(0.015625)"/>
        <path d="M 794 531 
L 1825 531 
L 1825 4091 
L 703 3866 
L 703 4441 
L 1819 4666 
L 2450 4666 
L 2450 531 
L 3481 531 
L 3481 0 
L 794 0 
L 794 531 
z
" id="DejaVuSans-31" transform="scale(0.015625)"/>
       </defs>
       <use xlink:href="#DejaVuSans-30"/>
       <use x="63.623047" xlink:href="#DejaVuSans-2e"/>
       <use x="95.410156" xlink:href="#DejaVuSans-31"/>
      </g>
     </g>
    </g>
    <g id="xtick_2">
     <g id="line2d_2">
      <g>
       <use style="stroke:#000000;stroke-width:0.8;" x="159.512727" xlink:href="#md5b9a0d25f" y="252"/>
      </g>
     </g>
     <g id="text_2">
      <!-- 0.2 -->
      <g transform="translate(151.561165 266.598437)scale(0.1 -0.1)">
       <defs>
        <path d="M 1228 531 
L 3431 531 
L 3431 0 
L 469 0 
L 469 531 
Q 828 903 1448 1529 
Q 2069 2156 2228 2338 
Q 2531 2678 2651 2914 
Q 2772 3150 2772 3378 
Q 2772 3750 2511 3984 
Q 2250 4219 1831 4219 
Q 1534 4219 1204 4116 
Q 875 4013 500 3803 
L 500 4441 
Q 881 4594 1212 4672 
Q 1544 4750 1819 4750 
Q 2544 4750 2975 4387 
Q 3406 4025 3406 3419 
Q 3406 3131 3298 2873 
Q 3191 2616 2906 2266 
Q 2828 2175 2409 1742 
Q 1991 1309 1228 531 
z
" id="DejaVuSans-32" transform="scale(0.015625)"/>
       </defs>
       <use xlink:href="#DejaVuSans-30"/>
       <use x="63.623047" xlink:href="#DejaVuSans-2e"/>
       <use x="95.410156" xlink:href="#DejaVuSans-32"/>
      </g>
     </g>
    </g>
    <g id="xtick_3">
     <g id="line2d_3">
      <g>
       <use style="stroke:#000000;stroke-width:0.8;" x="213.621818" xlink:href="#md5b9a0d25f" y="252"/>
      </g>
     </g>
     <g id="text_3">
      <!-- 0.3 -->
      <g transform="translate(205.670256 266.598437)scale(0.1 -0.1)">
       <defs>
        <path d="M 2597 2516 
Q 3050 2419 3304 2112 
Q 3559 1806 3559 1356 
Q 3559 666 3084 287 
Q 2609 -91 1734 -91 
Q 1441 -91 1130 -33 
Q 819 25 488 141 
L 488 750 
Q 750 597 1062 519 
Q 1375 441 1716 441 
Q 2309 441 2620 675 
Q 2931 909 2931 1356 
Q 2931 1769 2642 2001 
Q 2353 2234 1838 2234 
L 1294 2234 
L 1294 2753 
L 1863 2753 
Q 2328 2753 2575 2939 
Q 2822 3125 2822 3475 
Q 2822 3834 2567 4026 
Q 2313 4219 1838 4219 
Q 1578 4219 1281 4162 
Q 984 4106 628 3988 
L 628 4550 
Q 988 4650 1302 4700 
Q 1616 4750 1894 4750 
Q 2613 4750 3031 4423 
Q 3450 4097 3450 3541 
Q 3450 3153 3228 2886 
Q 3006 2619 2597 2516 
z
" id="DejaVuSans-33" transform="scale(0.015625)"/>
       </defs>
       <use xlink:href="#DejaVuSans-30"/>
       <use x="63.623047" xlink:href="#DejaVuSans-2e"/>
       <use x="95.410156" xlink:href="#DejaVuSans-33"/>
      </g>
     </g>
    </g>
    <g id="xtick_4">
     <g id="line2d_4">
      <g>
       <use style="stroke:#000000;stroke-width:0.8;" x="267.730909" xlink:href="#md5b9a0d25f" y="252"/>
      </g>
     </g>
     <g id="text_4">
      <!-- 0.4 -->
      <g transform="translate(259.779347 266.598437)scale(0.1 -0.1)">
       <defs>
        <path d="M 2419 4116 
L 825 1625 
L 2419 1625 
L 2419 4116 
z
M 2253 4666 
L 3047 4666 
L 3047 1625 
L 3713 1625 
L 3713 1100 
L 3047 1100 
L 3047 0 
L 2419 0 
L 2419 1100 
L 313 1100 
L 313 1709 
L 2253 4666 
z
" id="DejaVuSans-34" transform="scale(0.015625)"/>
       </defs>
       <use xlink:href="#DejaVuSans-30"/>
       <use x="63.623047" xlink:href="#DejaVuSans-2e"/>
       <use x="95.410156" xlink:href="#DejaVuSans-34"/>
      </g>
     </g>
    </g>
    <g id="xtick_5">
     <g id="line2d_5">
      <g>
       <use style="stroke:#000000;stroke-width:0.8;" x="321.84" xlink:href="#md5b9a0d25f" y="252"/>
      </g>
     </g>
     <g id="text_5">
      <!-- 0.5 -->
      <g transform="translate(313.888438 266.598437)scale(0.1 -0.1)">
       <defs>
        <path d="M 691 4666 
L 3169 4666 
L 3169 4134 
L 1269 4134 
L 1269 2991 
Q 1406 3038 1543 3061 
Q 1681 3084 1819 3084 
Q 2600 3084 3056 2656 
Q 3513 2228 3513 1497 
Q 3513 744 3044 326 
Q 2575 -91 1722 -91 
Q 1428 -91 1123 -41 
Q 819 9 494 109 
L 494 744 
Q 775 591 1075 516 
Q 1375 441 1709 441 
Q 2250 441 2565 725 
Q 2881 1009 2881 1497 
Q 2881 1984 2565 2268 
Q 2250 2553 1709 2553 
Q 1456 2553 1204 2497 
Q 953 2441 691 2322 
L 691 4666 
z
" id="DejaVuSans-35" transform="scale(0.015625)"/>
       </defs>
       <use xlink:href="#DejaVuSans-30"/>
       <use x="63.623047" xlink:href="#DejaVuSans-2e"/>
       <use x="95.410156" xlink:href="#DejaVuSans-35"/>
      </g>
     </g>
    </g>
    <g id="text_6">
     <!-- Distance (m) -->
     <g transform="translate(155.696563 280.276563)scale(0.1 -0.1)">
      <defs>
       <path d="M 1259 4147 
L 1259 519 
L 2022 519 
Q 2988 519 3436 956 
Q 3884 1394 3884 2338 
Q 3884 3275 3436 3711 
Q 2988 4147 2022 4147 
L 1259 4147 
z
M 628 4666 
L 1925 4666 
Q 3281 4666 3915 4102 
Q 4550 3538 4550 2338 
Q 4550 1131 3912 565 
Q 3275 0 1925 0 
L 628 0 
L 628 4666 
z
" id="DejaVuSans-44" transform="scale(0.015625)"/>
       <path d="M 603 3500 
L 1178 3500 
L 1178 0 
L 603 0 
L 603 3500 
z
M 603 4863 
L 1178 4863 
L 1178 4134 
L 603 4134 
L 603 4863 
z
" id="DejaVuSans-69" transform="scale(0.015625)"/>
       <path d="M 2834 3397 
L 2834 2853 
Q 2591 2978 2328 3040 
Q 2066 3103 1784 3103 
Q 1356 3103 1142 2972 
Q 928 2841 928 2578 
Q 928 2378 1081 2264 
Q 1234 2150 1697 2047 
L 1894 2003 
Q 2506 1872 2764 1633 
Q 3022 1394 3022 966 
Q 3022 478 2636 193 
Q 2250 -91 1575 -91 
Q 1294 -91 989 -36 
Q 684 19 347 128 
L 347 722 
Q 666 556 975 473 
Q 1284 391 1588 391 
Q 1994 391 2212 530 
Q 2431 669 2431 922 
Q 2431 1156 2273 1281 
Q 2116 1406 1581 1522 
L 1381 1569 
Q 847 1681 609 1914 
Q 372 2147 372 2553 
Q 372 3047 722 3315 
Q 1072 3584 1716 3584 
Q 2034 3584 2315 3537 
Q 2597 3491 2834 3397 
z
" id="DejaVuSans-73" transform="scale(0.015625)"/>
       <path d="M 1172 4494 
L 1172 3500 
L 2356 3500 
L 2356 3053 
L 1172 3053 
L 1172 1153 
Q 1172 725 1289 603 
Q 1406 481 1766 481 
L 2356 481 
L 2356 0 
L 1766 0 
Q 1100 0 847 248 
Q 594 497 594 1153 
L 594 3053 
L 172 3053 
L 172 3500 
L 594 3500 
L 594 4494 
L 1172 4494 
z
" id="DejaVuSans-74" transform="scale(0.015625)"/>
       <path d="M 2194 1759 
Q 1497 1759 1228 1600 
Q 959 1441 959 1056 
Q 959 750 1161 570 
Q 1363 391 1709 391 
Q 2188 391 2477 730 
Q 2766 1069 2766 1631 
L 2766 1759 
L 2194 1759 
z
M 3341 1997 
L 3341 0 
L 2766 0 
L 2766 531 
Q 2569 213 2275 61 
Q 1981 -91 1556 -91 
Q 1019 -91 701 211 
Q 384 513 384 1019 
Q 384 1609 779 1909 
Q 1175 2209 1959 2209 
L 2766 2209 
L 2766 2266 
Q 2766 2663 2505 2880 
Q 2244 3097 1772 3097 
Q 1472 3097 1187 3025 
Q 903 2953 641 2809 
L 641 3341 
Q 956 3463 1253 3523 
Q 1550 3584 1831 3584 
Q 2591 3584 2966 3190 
Q 3341 2797 3341 1997 
z
" id="DejaVuSans-61" transform="scale(0.015625)"/>
       <path d="M 3513 2113 
L 3513 0 
L 2938 0 
L 2938 2094 
Q 2938 2591 2744 2837 
Q 2550 3084 2163 3084 
Q 1697 3084 1428 2787 
Q 1159 2491 1159 1978 
L 1159 0 
L 581 0 
L 581 3500 
L 1159 3500 
L 1159 2956 
Q 1366 3272 1645 3428 
Q 1925 3584 2291 3584 
Q 2894 3584 3203 3211 
Q 3513 2838 3513 2113 
z
" id="DejaVuSans-6e" transform="scale(0.015625)"/>
       <path d="M 3122 3366 
L 3122 2828 
Q 2878 2963 2633 3030 
Q 2388 3097 2138 3097 
Q 1578 3097 1268 2742 
Q 959 2388 959 1747 
Q 959 1106 1268 751 
Q 1578 397 2138 397 
Q 2388 397 2633 464 
Q 2878 531 3122 666 
L 3122 134 
Q 2881 22 2623 -34 
Q 2366 -91 2075 -91 
Q 1284 -91 818 406 
Q 353 903 353 1747 
Q 353 2603 823 3093 
Q 1294 3584 2113 3584 
Q 2378 3584 2631 3529 
Q 2884 3475 3122 3366 
z
" id="DejaVuSans-63" transform="scale(0.015625)"/>
       <path d="M 3597 1894 
L 3597 1613 
L 953 1613 
Q 991 1019 1311 708 
Q 1631 397 2203 397 
Q 2534 397 2845 478 
Q 3156 559 3463 722 
L 3463 178 
Q 3153 47 2828 -22 
Q 2503 -91 2169 -91 
Q 1331 -91 842 396 
Q 353 884 353 1716 
Q 353 2575 817 3079 
Q 1281 3584 2069 3584 
Q 2775 3584 3186 3129 
Q 3597 2675 3597 1894 
z
M 3022 2063 
Q 3016 2534 2758 2815 
Q 2500 3097 2075 3097 
Q 1594 3097 1305 2825 
Q 1016 2553 972 2059 
L 3022 2063 
z
" id="DejaVuSans-65" transform="scale(0.015625)"/>
       <path id="DejaVuSans-20" transform="scale(0.015625)"/>
       <path d="M 1984 4856 
Q 1566 4138 1362 3434 
Q 1159 2731 1159 2009 
Q 1159 1288 1364 580 
Q 1569 -128 1984 -844 
L 1484 -844 
Q 1016 -109 783 600 
Q 550 1309 550 2009 
Q 550 2706 781 3412 
Q 1013 4119 1484 4856 
L 1984 4856 
z
" id="DejaVuSans-28" transform="scale(0.015625)"/>
       <path d="M 3328 2828 
Q 3544 3216 3844 3400 
Q 4144 3584 4550 3584 
Q 5097 3584 5394 3201 
Q 5691 2819 5691 2113 
L 5691 0 
L 5113 0 
L 5113 2094 
Q 5113 2597 4934 2840 
Q 4756 3084 4391 3084 
Q 3944 3084 3684 2787 
Q 3425 2491 3425 1978 
L 3425 0 
L 2847 0 
L 2847 2094 
Q 2847 2600 2669 2842 
Q 2491 3084 2119 3084 
Q 1678 3084 1418 2786 
Q 1159 2488 1159 1978 
L 1159 0 
L 581 0 
L 581 3500 
L 1159 3500 
L 1159 2956 
Q 1356 3278 1631 3431 
Q 1906 3584 2284 3584 
Q 2666 3584 2933 3390 
Q 3200 3197 3328 2828 
z
" id="DejaVuSans-6d" transform="scale(0.015625)"/>
       <path d="M 513 4856 
L 1013 4856 
Q 1481 4119 1714 3412 
Q 1947 2706 1947 2009 
Q 1947 1309 1714 600 
Q 1481 -109 1013 -844 
L 513 -844 
Q 928 -128 1133 580 
Q 1338 1288 1338 2009 
Q 1338 2731 1133 3434 
Q 928 4138 513 4856 
z
" id="DejaVuSans-29" transform="scale(0.015625)"/>
      </defs>
      <use xlink:href="#DejaVuSans-44"/>
      <use x="77.001953" xlink:href="#DejaVuSans-69"/>
      <use x="104.785156" xlink:href="#DejaVuSans-73"/>
      <use x="156.884766" xlink:href="#DejaVuSans-74"/>
      <use x="196.09375" xlink:href="#DejaVuSans-61"/>
      <use x="257.373047" xlink:href="#DejaVuSans-6e"/>
      <use x="320.751953" xlink:href="#DejaVuSans-63"/>
      <use x="375.732422" xlink:href="#DejaVuSans-65"/>
      <use x="437.255859" xlink:href="#DejaVuSans-20"/>
      <use x="469.042969" xlink:href="#DejaVuSans-28"/>
      <use x="508.056641" xlink:href="#DejaVuSans-6d"/>
      <use x="605.46875" xlink:href="#DejaVuSans-29"/>
     </g>
    </g>
   </g>
   <g id="matplotlib.axis_2">
    <g id="ytick_1">
     <g id="line2d_6">
      <defs>
       <path d="M 0 0 
L -3.5 0 
" id="mb0ace741e1" style="stroke:#000000;stroke-width:0.8;"/>
      </defs>
      <g>
       <use style="stroke:#000000;stroke-width:0.8;" x="54" xlink:href="#mb0ace741e1" y="223.395699"/>
      </g>
     </g>
     <g id="text_7">
      <!-- 0.2 -->
      <g transform="translate(31.096875 227.194918)scale(0.1 -0.1)">
       <use xlink:href="#DejaVuSans-30"/>
       <use x="63.623047" xlink:href="#DejaVuSans-2e"/>
       <use x="95.410156" xlink:href="#DejaVuSans-32"/>
      </g>
     </g>
    </g>
    <g id="ytick_2">
     <g id="line2d_7">
      <g>
       <use style="stroke:#000000;stroke-width:0.8;" x="54" xlink:href="#mb0ace741e1" y="193.779656"/>
      </g>
     </g>
     <g id="text_8">
      <!-- 0.4 -->
      <g transform="translate(31.096875 197.578875)scale(0.1 -0.1)">
       <use xlink:href="#DejaVuSans-30"/>
       <use x="63.623047" xlink:href="#DejaVuSans-2e"/>
       <use x="95.410156" xlink:href="#DejaVuSans-34"/>
      </g>
     </g>
    </g>
    <g id="ytick_3">
     <g id="line2d_8">
      <g>
       <use style="stroke:#000000;stroke-width:0.8;" x="54" xlink:href="#mb0ace741e1" y="164.163613"/>
      </g>
     </g>
     <g id="text_9">
      <!-- 0.6 -->
      <g transform="translate(31.096875 167.962832)scale(0.1 -0.1)">
       <defs>
        <path d="M 2113 2584 
Q 1688 2584 1439 2293 
Q 1191 2003 1191 1497 
Q 1191 994 1439 701 
Q 1688 409 2113 409 
Q 2538 409 2786 701 
Q 3034 994 3034 1497 
Q 3034 2003 2786 2293 
Q 2538 2584 2113 2584 
z
M 3366 4563 
L 3366 3988 
Q 3128 4100 2886 4159 
Q 2644 4219 2406 4219 
Q 1781 4219 1451 3797 
Q 1122 3375 1075 2522 
Q 1259 2794 1537 2939 
Q 1816 3084 2150 3084 
Q 2853 3084 3261 2657 
Q 3669 2231 3669 1497 
Q 3669 778 3244 343 
Q 2819 -91 2113 -91 
Q 1303 -91 875 529 
Q 447 1150 447 2328 
Q 447 3434 972 4092 
Q 1497 4750 2381 4750 
Q 2619 4750 2861 4703 
Q 3103 4656 3366 4563 
z
" id="DejaVuSans-36" transform="scale(0.015625)"/>
       </defs>
       <use xlink:href="#DejaVuSans-30"/>
       <use x="63.623047" xlink:href="#DejaVuSans-2e"/>
       <use x="95.410156" xlink:href="#DejaVuSans-36"/>
      </g>
     </g>
    </g>
    <g id="ytick_4">
     <g id="line2d_9">
      <g>
       <use style="stroke:#000000;stroke-width:0.8;" x="54" xlink:href="#mb0ace741e1" y="134.54757"/>
      </g>
     </g>
     <g id="text_10">
      <!-- 0.8 -->
      <g transform="translate(31.096875 138.346789)scale(0.1 -0.1)">
       <defs>
        <path d="M 2034 2216 
Q 1584 2216 1326 1975 
Q 1069 1734 1069 1313 
Q 1069 891 1326 650 
Q 1584 409 2034 409 
Q 2484 409 2743 651 
Q 3003 894 3003 1313 
Q 3003 1734 2745 1975 
Q 2488 2216 2034 2216 
z
M 1403 2484 
Q 997 2584 770 2862 
Q 544 3141 544 3541 
Q 544 4100 942 4425 
Q 1341 4750 2034 4750 
Q 2731 4750 3128 4425 
Q 3525 4100 3525 3541 
Q 3525 3141 3298 2862 
Q 3072 2584 2669 2484 
Q 3125 2378 3379 2068 
Q 3634 1759 3634 1313 
Q 3634 634 3220 271 
Q 2806 -91 2034 -91 
Q 1263 -91 848 271 
Q 434 634 434 1313 
Q 434 1759 690 2068 
Q 947 2378 1403 2484 
z
M 1172 3481 
Q 1172 3119 1398 2916 
Q 1625 2713 2034 2713 
Q 2441 2713 2670 2916 
Q 2900 3119 2900 3481 
Q 2900 3844 2670 4047 
Q 2441 4250 2034 4250 
Q 1625 4250 1398 4047 
Q 1172 3844 1172 3481 
z
" id="DejaVuSans-38" transform="scale(0.015625)"/>
       </defs>
       <use xlink:href="#DejaVuSans-30"/>
       <use x="63.623047" xlink:href="#DejaVuSans-2e"/>
       <use x="95.410156" xlink:href="#DejaVuSans-38"/>
      </g>
     </g>
    </g>
    <g id="ytick_5">
     <g id="line2d_10">
      <g>
       <use style="stroke:#000000;stroke-width:0.8;" x="54" xlink:href="#mb0ace741e1" y="104.931527"/>
      </g>
     </g>
     <g id="text_11">
      <!-- 1.0 -->
      <g transform="translate(31.096875 108.730746)scale(0.1 -0.1)">
       <use xlink:href="#DejaVuSans-31"/>
       <use x="63.623047" xlink:href="#DejaVuSans-2e"/>
       <use x="95.410156" xlink:href="#DejaVuSans-30"/>
      </g>
     </g>
    </g>
    <g id="ytick_6">
     <g id="line2d_11">
      <g>
       <use style="stroke:#000000;stroke-width:0.8;" x="54" xlink:href="#mb0ace741e1" y="75.315484"/>
      </g>
     </g>
     <g id="text_12">
      <!-- 1.2 -->
      <g transform="translate(31.096875 79.114703)scale(0.1 -0.1)">
       <use xlink:href="#DejaVuSans-31"/>
       <use x="63.623047" xlink:href="#DejaVuSans-2e"/>
       <use x="95.410156" xlink:href="#DejaVuSans-32"/>
      </g>
     </g>
    </g>
    <g id="ytick_7">
     <g id="line2d_12">
      <g>
       <use style="stroke:#000000;stroke-width:0.8;" x="54" xlink:href="#mb0ace741e1" y="45.699441"/>
      </g>
     </g>
     <g id="text_13">
      <!-- 1.4 -->
      <g transform="translate(31.096875 49.49866)scale(0.1 -0.1)">
       <use xlink:href="#DejaVuSans-31"/>
       <use x="63.623047" xlink:href="#DejaVuSans-2e"/>
       <use x="95.410156" xlink:href="#DejaVuSans-34"/>
      </g>
     </g>
    </g>
    <g id="text_14">
     <!-- Peak hand speed (m/s) -->
     <g transform="translate(25.017187 200.659688)rotate(-90)scale(0.1 -0.1)">
      <defs>
       <path d="M 1259 4147 
L 1259 2394 
L 2053 2394 
Q 2494 2394 2734 2622 
Q 2975 2850 2975 3272 
Q 2975 3691 2734 3919 
Q 2494 4147 2053 4147 
L 1259 4147 
z
M 628 4666 
L 2053 4666 
Q 2838 4666 3239 4311 
Q 3641 3956 3641 3272 
Q 3641 2581 3239 2228 
Q 2838 1875 2053 1875 
L 1259 1875 
L 1259 0 
L 628 0 
L 628 4666 
z
" id="DejaVuSans-50" transform="scale(0.015625)"/>
       <path d="M 581 4863 
L 1159 4863 
L 1159 1991 
L 2875 3500 
L 3609 3500 
L 1753 1863 
L 3688 0 
L 2938 0 
L 1159 1709 
L 1159 0 
L 581 0 
L 581 4863 
z
" id="DejaVuSans-6b" transform="scale(0.015625)"/>
       <path d="M 3513 2113 
L 3513 0 
L 2938 0 
L 2938 2094 
Q 2938 2591 2744 2837 
Q 2550 3084 2163 3084 
Q 1697 3084 1428 2787 
Q 1159 2491 1159 1978 
L 1159 0 
L 581 0 
L 581 4863 
L 1159 4863 
L 1159 2956 
Q 1366 3272 1645 3428 
Q 1925 3584 2291 3584 
Q 2894 3584 3203 3211 
Q 3513 2838 3513 2113 
z
" id="DejaVuSans-68" transform="scale(0.015625)"/>
       <path d="M 2906 2969 
L 2906 4863 
L 3481 4863 
L 3481 0 
L 2906 0 
L 2906 525 
Q 2725 213 2448 61 
Q 2172 -91 1784 -91 
Q 1150 -91 751 415 
Q 353 922 353 1747 
Q 353 2572 751 3078 
Q 1150 3584 1784 3584 
Q 2172 3584 2448 3432 
Q 2725 3281 2906 2969 
z
M 947 1747 
Q 947 1113 1208 752 
Q 1469 391 1925 391 
Q 2381 391 2643 752 
Q 2906 1113 2906 1747 
Q 2906 2381 2643 2742 
Q 2381 3103 1925 3103 
Q 1469 3103 1208 2742 
Q 947 2381 947 1747 
z
" id="DejaVuSans-64" transform="scale(0.015625)"/>
       <path d="M 1159 525 
L 1159 -1331 
L 581 -1331 
L 581 3500 
L 1159 3500 
L 1159 2969 
Q 1341 3281 1617 3432 
Q 1894 3584 2278 3584 
Q 2916 3584 3314 3078 
Q 3713 2572 3713 1747 
Q 3713 922 3314 415 
Q 2916 -91 2278 -91 
Q 1894 -91 1617 61 
Q 1341 213 1159 525 
z
M 3116 1747 
Q 3116 2381 2855 2742 
Q 2594 3103 2138 3103 
Q 1681 3103 1420 2742 
Q 1159 2381 1159 1747 
Q 1159 1113 1420 752 
Q 1681 391 2138 391 
Q 2594 391 2855 752 
Q 3116 1113 3116 1747 
z
" id="DejaVuSans-70" transform="scale(0.015625)"/>
       <path d="M 1625 4666 
L 2156 4666 
L 531 -594 
L 0 -594 
L 1625 4666 
z
" id="DejaVuSans-2f" transform="scale(0.015625)"/>
      </defs>
      <use xlink:href="#DejaVuSans-50"/>
      <use x="56.677734" xlink:href="#DejaVuSans-65"/>
      <use x="118.201172" xlink:href="#DejaVuSans-61"/>
      <use x="179.480469" xlink:href="#DejaVuSans-6b"/>
      <use x="237.390625" xlink:href="#DejaVuSans-20"/>
      <use x="269.177734" xlink:href="#DejaVuSans-68"/>
      <use x="332.556641" xlink:href="#DejaVuSans-61"/>
      <use x="393.835938" xlink:href="#DejaVuSans-6e"/>
      <use x="457.214844" xlink:href="#DejaVuSans-64"/>
      <use x="520.691406" xlink:href="#DejaVuSans-20"/>
      <use x="552.478516" xlink:href="#DejaVuSans-73"/>
      <use x="604.578125" xlink:href="#DejaVuSans-70"/>
      <use x="668.054688" xlink:href="#DejaVuSans-65"/>
      <use x="729.578125" xlink:href="#DejaVuSans-65"/>
      <use x="791.101562" xlink:href="#DejaVuSans-64"/>
      <use x="854.578125" xlink:href="#DejaVuSans-20"/>
      <use x="886.365234" xlink:href="#DejaVuSans-28"/>
      <use x="925.378906" xlink:href="#DejaVuSans-6d"/>
      <use x="1022.791016" xlink:href="#DejaVuSans-2f"/>
      <use x="1056.482422" xlink:href="#DejaVuSans-73"/>
      <use x="1108.582031" xlink:href="#DejaVuSans-29"/>
     </g>
    </g>
   </g>
   <g id="patch_3">
    <path d="M 54 252 
L 54 34.56 
" style="fill:none;stroke:#000000;stroke-linecap:square;stroke-linejoin:miter;stroke-width:0.8;"/>
   </g>
   <g id="patch_4">
    <path d="M 321.84 252 
L 321.84 34.56 
" style="fill:none;stroke:#000000;stroke-linecap:square;stroke-linejoin:miter;stroke-width:0.8;"/>
   </g>
   <g id="patch_5">
    <path d="M 54 252 
L 321.84 252 
" style="fill:none;stroke:#000000;stroke-linecap:square;stroke-linejoin:miter;stroke-width:0.8;"/>
   </g>
   <g id="patch_6">
    <path d="M 54 34.56 
L 321.84 34.56 
" style="fill:none;stroke:#000000;stroke-linecap:square;stroke-linejoin:miter;stroke-width:0.8;"/>
   </g>
  </g>
  <g id="axes_2">
   <g id="patch_7">
    <path d="M 338.58 252 
L 349.452 252 
L 349.452 34.56 
L 338.58 34.56 
z
" style="fill:#ffffff;"/>
   </g>
   <g id="patch_8">
    <path clip-path="url(#p061dfb438c)" d="M 338.58 252 
L 338.58 237.504 
L 338.58 49.056 
L 338.58 34.56 
L 349.452 34.56 
L 349.452 49.056 
L 349.452 237.504 
L 349.452 252 
L 349.452 252 
z
" style="fill:#ffffff;stroke:#ffffff;stroke-linejoin:miter;stroke-width:0.01;"/>
   </g>
   <g id="QuadMesh_1">
    <path clip-path="url(#p061dfb438c)" d="M 338.58 252 
L 349.452 252 
L 349.452 237.504 
L 338.58 237.504 
L 338.58 252 
" style="fill:#470d60;"/>
    <path clip-path="url(#p061dfb438c)" d="M 338.58 237.504 
L 349.452 237.504 
L 349.452 223.008 
L 338.58 223.008 
L 338.58 237.504 
" style="fill:#482475;"/>
    <path clip-path="url(#p061dfb438c)" d="M 338.58 223.008 
L 349.452 223.008 
L 349.452 208.512 
L 338.58 208.512 
L 338.58 223.008 
" style="fill:#443983;"/>
    <path clip-path="url(#p061dfb438c)" d="M 338.58 208.512 
L 349.452 208.512 
L 349.452 194.016 
L 338.58 194.016 
L 338.58 208.512 
" style="fill:#3d4d8a;"/>
    <path clip-path="url(#p061dfb438c)" d="M 338.58 194.016 
L 349.452 194.016 
L 349.452 179.52 
L 338.58 179.52 
L 338.58 194.016 
" style="fill:#355f8d;"/>
    <path clip-path="url(#p061dfb438c)" d="M 338.58 179.52 
L 349.452 179.52 
L 349.452 165.024 
L 338.58 165.024 
L 338.58 179.52 
" style="fill:#2d708e;"/>
    <path clip-path="url(#p061dfb438c)" d="M 338.58 165.024 
L 349.452 165.024 
L 349.452 150.528 
L 338.58 150.528 
L 338.58 165.024 
" style="fill:#27808e;"/>
    <path clip-path="url(#p061dfb438c)" d="M 338.58 150.528 
L 349.452 150.528 
L 349.452 136.032 
L 338.58 136.032 
L 338.58 150.528 
" style="fill:#21918c;"/>
    <path clip-path="url(#p061dfb438c)" d="M 338.58 136.032 
L 349.452 136.032 
L 349.452 121.536 
L 338.58 121.536 
L 338.58 136.032 
" style="fill:#1fa188;"/>
    <path clip-path="url(#p061dfb438c)" d="M 338.58 121.536 
L 349.452 121.536 
L 349.452 107.04 
L 338.58 107.04 
L 338.58 121.536 
" style="fill:#2ab07f;"/>
    <path clip-path="url(#p061dfb438c)" d="M 338.58 107.04 
L 349.452 107.04 
L 349.452 92.544 
L 338.58 92.544 
L 338.58 107.04 
" style="fill:#44bf70;"/>
    <path clip-path="url(#p061dfb438c)" d="M 338.58 92.544 
L 349.452 92.544 
L 349.452 78.048 
L 338.58 78.048 
L 338.58 92.544 
" style="fill:#67cc5c;"/>
    <path clip-path="url(#p061dfb438c)" d="M 338.58 78.048 
L 349.452 78.048 
L 349.452 63.552 
L 338.58 63.552 
L 338.58 78.048 
" style="fill:#90d743;"/>
    <path clip-path="url(#p061dfb438c)" d="M 338.58 63.552 
L 349.452 63.552 
L 349.452 49.056 
L 338.58 49.056 
L 338.58 63.552 
" style="fill:#bddf26;"/>
    <path clip-path="url(#p061dfb438c)" d="M 338.58 49.056 
L 349.452 49.056 
L 349.452 34.56 
L 338.58 34.56 
L 338.58 49.056 
" style="fill:#eae51a;"/>
   </g>
   <g id="matplotlib.axis_3"/>
   <g id="matplotlib.axis_4">
    <g id="ytick_8">
     <g id="line2d_13">
      <defs>
       <path d="M 0 0 
L 3.5 0 
" id="mb27af91046" style="stroke:#000000;stroke-width:0.8;"/>
      </defs>
      <g>
       <use style="stroke:#000000;stroke-width:0.8;" x="349.452" xlink:href="#mb27af91046" y="252"/>
      </g>
     </g>
     <g id="text_15">
      <!-- 0 -->
      <g transform="translate(356.452 255.799219)scale(0.1 -0.1)">
       <use xlink:href="#DejaVuSans-30"/>
      </g>
     </g>
    </g>
    <g id="ytick_9">
     <g id="line2d_14">
      <g>
       <use style="stroke:#000000;stroke-width:0.8;" x="349.452" xlink:href="#mb27af91046" y="223.008"/>
      </g>
     </g>
     <g id="text_16">
      <!-- 20 -->
      <g transform="translate(356.452 226.807219)scale(0.1 -0.1)">
       <use xlink:href="#DejaVuSans-32"/>
       <use x="63.623047" xlink:href="#DejaVuSans-30"/>
      </g>
     </g>
    </g>
    <g id="ytick_10">
     <g id="line2d_15">
      <g>
       <use style="stroke:#000000;stroke-width:0.8;" x="349.452" xlink:href="#mb27af91046" y="194.016"/>
      </g>
     </g>
     <g id="text_17">
      <!-- 40 -->
      <g transform="translate(356.452 197.815219)scale(0.1 -0.1)">
       <use xlink:href="#DejaVuSans-34"/>
       <use x="63.623047" xlink:href="#DejaVuSans-30"/>
      </g>
     </g>
    </g>
    <g id="ytick_11">
     <g id="line2d_16">
      <g>
       <use style="stroke:#000000;stroke-width:0.8;" x="349.452" xlink:href="#mb27af91046" y="165.024"/>
      </g>
     </g>
     <g id="text_18">
      <!-- 60 -->
      <g transform="translate(356.452 168.823219)scale(0.1 -0.1)">
       <use xlink:href="#DejaVuSans-36"/>
       <use x="63.623047" xlink:href="#DejaVuSans-30"/>
      </g>
     </g>
    </g>
    <g id="ytick_12">
     <g id="line2d_17">
      <g>
       <use style="stroke:#000000;stroke-width:0.8;" x="349.452" xlink:href="#mb27af91046" y="136.032"/>
      </g>
     </g>
     <g id="text_19">
      <!-- 80 -->
      <g transform="translate(356.452 139.831219)scale(0.1 -0.1)">
       <use xlink:href="#DejaVuSans-38"/>
       <use x="63.623047" xlink:href="#DejaVuSans-30"/>
      </g>
     </g>
    </g>
    <g id="ytick_13">
     <g id="line2d_18">
      <g>
       <use style="stroke:#000000;stroke-width:0.8;" x="349.452" xlink:href="#mb27af91046" y="107.04"/>
      </g>
     </g>
     <g id="text_20">
      <!-- 100 -->
      <g transform="translate(356.452 110.839219)scale(0.1 -0.1)">
       <use xlink:href="#DejaVuSans-31"/>
       <use x="63.623047" xlink:href="#DejaVuSans-30"/>
       <use x="127.246094" xlink:href="#DejaVuSans-30"/>
      </g>
     </g>
    </g>
    <g id="ytick_14">
     <g id="line2d_19">
      <g>
       <use style="stroke:#000000;stroke-width:0.8;" x="349.452" xlink:href="#mb27af91046" y="78.048"/>
      </g>
     </g>
     <g id="text_21">
      <!-- 120 -->
      <g transform="translate(356.452 81.847219)scale(0.1 -0.1)">
       <use xlink:href="#DejaVuSans-31"/>
       <use x="63.623047" xlink:href="#DejaVuSans-32"/>
       <use x="127.246094" xlink:href="#DejaVuSans-30"/>
      </g>
     </g>
    </g>
    <g id="ytick_15">
     <g id="line2d_20">
      <g>
       <use style="stroke:#000000;stroke-width:0.8;" x="349.452" xlink:href="#mb27af91046" y="49.056"/>
      </g>
     </g>
     <g id="text_22">
      <!-- 140 -->
      <g transform="translate(356.452 52.855219)scale(0.1 -0.1)">
       <use xlink:href="#DejaVuSans-31"/>
       <use x="63.623047" xlink:href="#DejaVuSans-34"/>
       <use x="127.246094" xlink:href="#DejaVuSans-30"/>
      </g>
     </g>
    </g>
   </g>
   <g id="LineCollection_1"/>
   <g id="patch_9">
    <path d="M 338.58 252 
L 338.58 237.504 
L 338.58 49.056 
L 338.58 34.56 
L 349.452 34.56 
L 349.452 49.056 
L 349.452 237.504 
L 349.452 252 
z
" style="fill:none;stroke:#000000;stroke-linecap:square;stroke-linejoin:miter;stroke-width:0.8;"/>
   </g>
  </g>
 </g>
 <defs>
  <clipPath id="p2aa590cc75">
   <rect height="217.44" width="267.84" x="54" y="34.56"/>
  </clipPath>
  <clipPath id="p061dfb438c">
   <rect height="217.44" width="10.872" x="338.58" y="34.56"/>
  </clipPath>
 </defs>
</svg>
